<svg width="502" height="104" viewBox="0 0 502 104" fill="none" xmlns="http://www.w3.org/2000/svg">
<path d="M41.2787 39.429C48.3068 39.4371 55.3348 39.4433 62.3649 39.4514C62.3424 41.6703 62.3198 43.8892 62.2992 46.1081C52.9524 46.1081 43.6057 46.1081 34.2568 46.1081C34.2671 36.7394 34.2774 27.3687 34.2876 18H41.2623C41.2685 25.1437 41.2746 32.2874 41.2808 39.431L41.2787 39.429Z" fill="url(#paint0_linear_66_107)"/>
<path d="M20.5003 61.677C13.6668 61.6606 6.83342 61.6443 0 61.63C0.00199925 59.384 0.00599774 57.1379 0.00799698 54.8919H27.2237L27.2297 82.9959C24.9846 82.9959 22.7394 82.998 20.4943 83C20.4963 75.8923 20.4983 68.7846 20.5023 61.679L20.5003 61.677Z" fill="url(#paint1_linear_66_107)"/>
<path d="M12.6327 26.7682L7.59912 31.8846L48.4758 73.4345L53.5094 68.3181L12.6327 26.7682Z" fill="url(#paint2_linear_66_107)"/>
<path d="M116.104 36.0909V44.642H89.1378V36.0909H116.104ZM95.7955 24.8523H106.851V68.8906C106.851 70.3769 107.075 71.517 107.523 72.3111C107.991 73.0848 108.602 73.6141 109.355 73.8991C110.108 74.1842 110.943 74.3267 111.859 74.3267C112.552 74.3267 113.183 74.2758 113.753 74.174C114.343 74.0722 114.791 73.9806 115.097 73.8991L116.96 82.5419C116.369 82.7455 115.524 82.9695 114.425 83.2138C113.346 83.4581 112.022 83.6006 110.455 83.6413C107.686 83.7228 105.192 83.3054 102.972 82.3892C100.753 81.4527 98.992 80.0071 97.6889 78.0526C96.4063 76.098 95.7751 73.6548 95.7955 70.723V24.8523ZM147.028 83.9162C142.447 83.9162 138.477 82.9084 135.118 80.8928C131.758 78.8771 129.152 76.0573 127.299 72.4332C125.467 68.8092 124.551 64.5743 124.551 59.7287C124.551 54.883 125.467 50.638 127.299 46.9936C129.152 43.3492 131.758 40.5192 135.118 38.5036C138.477 36.4879 142.447 35.4801 147.028 35.4801C151.609 35.4801 155.579 36.4879 158.939 38.5036C162.298 40.5192 164.894 43.3492 166.726 46.9936C168.579 50.638 169.505 54.883 169.505 59.7287C169.505 64.5743 168.579 68.8092 166.726 72.4332C164.894 76.0573 162.298 78.8771 158.939 80.8928C155.579 82.9084 151.609 83.9162 147.028 83.9162ZM147.089 75.0597C149.573 75.0597 151.65 74.3776 153.319 73.0135C154.989 71.629 156.231 69.7763 157.045 67.4553C157.88 65.1342 158.297 62.5485 158.297 59.6982C158.297 56.8274 157.88 54.2315 157.045 51.9105C156.231 49.5691 154.989 47.7062 153.319 46.3217C151.65 44.9373 149.573 44.245 147.089 44.245C144.544 44.245 142.427 44.9373 140.737 46.3217C139.067 47.7062 137.815 49.5691 136.98 51.9105C136.166 54.2315 135.759 56.8274 135.759 59.6982C135.759 62.5485 136.166 65.1342 136.98 67.4553C137.815 69.7763 139.067 71.629 140.737 73.0135C142.427 74.3776 144.544 75.0597 147.089 75.0597ZM190.687 68.2798L190.656 54.9339H192.428L209.286 36.0909H222.204L201.467 59.179H199.177L190.687 68.2798ZM180.609 83V20.4545H191.664V83H180.609ZM210.049 83L194.779 61.6527L202.231 53.8651L223.273 83H210.049ZM231.292 83V36.0909H242.347V83H231.292ZM236.85 29.4332C235.099 29.4332 233.592 28.853 232.33 27.6925C231.068 26.5116 230.436 25.0966 230.436 23.4474C230.436 21.7779 231.068 20.3629 232.33 19.2024C233.592 18.0215 235.099 17.4311 236.85 17.4311C238.621 17.4311 240.128 18.0215 241.37 19.2024C242.632 20.3629 243.263 21.7779 243.263 23.4474C243.263 25.0966 242.632 26.5116 241.37 27.6925C240.128 28.853 238.621 29.4332 236.85 29.4332ZM273.454 83.9162C269.667 83.9162 266.287 82.9491 263.315 81.0149C260.362 79.0604 258.041 76.2812 256.352 72.6776C254.682 69.0535 253.847 64.7067 253.847 59.6371C253.847 54.5675 254.692 50.2308 256.382 46.6271C258.092 43.0234 260.434 40.2647 263.406 38.3509C266.379 36.437 269.748 35.4801 273.515 35.4801C276.426 35.4801 278.768 35.9688 280.539 36.946C282.331 37.9029 283.715 39.0227 284.693 40.3054C285.69 41.5881 286.464 42.718 287.014 43.6953H287.563V20.4545H296.695V83H287.777V75.701H287.014C286.464 76.6986 285.67 77.8388 284.631 79.1214C283.613 80.4041 282.209 81.5239 280.417 82.4808C278.625 83.4377 276.304 83.9162 273.454 83.9162ZM275.469 76.1286C278.096 76.1286 280.315 75.4363 282.127 74.0518C283.96 72.647 285.344 70.7027 286.281 68.2188C287.237 65.7348 287.716 62.8437 287.716 59.5455C287.716 56.2879 287.248 53.4375 286.311 50.9943C285.375 48.5511 284 46.6475 282.188 45.2834C280.376 43.9193 278.137 43.2372 275.469 43.2372C272.721 43.2372 270.43 43.9498 268.598 45.375C266.766 46.8002 265.381 48.7446 264.445 51.2081C263.528 53.6716 263.07 56.4508 263.07 59.5455C263.07 62.6809 263.539 65.5007 264.475 68.005C265.412 70.5092 266.796 72.4943 268.629 73.9602C270.481 75.4058 272.762 76.1286 275.469 76.1286ZM331.665 83.9467C327.043 83.9467 323.063 82.9593 319.724 80.9844C316.405 78.9891 313.84 76.1896 312.028 72.5859C310.236 68.9619 309.34 64.7169 309.34 59.8509C309.34 55.0459 310.236 50.8111 312.028 47.1463C313.84 43.4815 316.364 40.621 319.602 38.5646C322.859 36.5083 326.666 35.4801 331.023 35.4801C333.67 35.4801 336.236 35.9179 338.72 36.7933C341.203 37.6688 343.433 39.0431 345.408 40.9162C347.383 42.7893 348.94 45.2223 350.08 48.2152C351.22 51.1877 351.791 54.8016 351.791 59.0568V62.294H314.501V55.4531H342.842C342.842 53.0507 342.354 50.9231 341.376 49.0703C340.399 47.1972 339.025 45.7211 337.254 44.642C335.503 43.563 333.446 43.0234 331.085 43.0234C328.519 43.0234 326.28 43.6546 324.366 44.9169C322.472 46.1589 321.006 47.7876 319.968 49.8033C318.95 51.7985 318.441 53.9669 318.441 56.3082V61.6527C318.441 64.7881 318.991 67.4553 320.09 69.6541C321.21 71.853 322.768 73.5327 324.763 74.6932C326.758 75.8333 329.089 76.4034 331.756 76.4034C333.487 76.4034 335.065 76.1591 336.49 75.6705C337.915 75.1615 339.147 74.4081 340.185 73.4105C341.224 72.4129 342.018 71.1811 342.568 69.7152L351.21 71.2727C350.518 73.8177 349.276 76.0471 347.484 77.9609C345.713 79.8544 343.484 81.3305 340.796 82.3892C338.129 83.4276 335.085 83.9467 331.665 83.9467ZM402.428 36.0909L385.417 83H375.644L358.603 36.0909H368.406L380.286 72.1889H380.775L392.624 36.0909H402.428ZM415.806 83.5803C414.137 83.5803 412.701 82.9898 411.5 81.8089C410.299 80.6077 409.698 79.1622 409.698 77.4723C409.698 75.8028 410.299 74.3776 411.5 73.1967C412.701 71.9955 414.137 71.3949 415.806 71.3949C417.476 71.3949 418.911 71.9955 420.112 73.1967C421.314 74.3776 421.914 75.8028 421.914 77.4723C421.914 78.5921 421.629 79.6203 421.059 80.5568C420.509 81.473 419.776 82.206 418.86 82.7557C417.944 83.3054 416.926 83.5803 415.806 83.5803ZM446.096 84.0994C443.124 84.0994 440.518 83.5395 438.278 82.4197C436.038 81.2796 434.379 79.6406 433.3 77.5028C432.221 75.3447 431.926 72.7386 432.414 69.6847C432.883 66.9972 433.789 64.8187 435.132 63.1491C436.476 61.4593 438.105 60.1359 440.019 59.179C441.953 58.2017 444.03 57.4789 446.249 57.0107C448.488 56.522 450.718 56.1454 452.937 55.8807C455.828 55.5142 458.18 55.2292 459.992 55.0256C461.804 54.822 463.168 54.486 464.084 54.0178C465 53.5495 465.56 52.7453 465.764 51.6051V51.3608C466.252 48.3679 465.855 46.0367 464.573 44.3672C463.29 42.6773 461 41.8324 457.701 41.8324C454.281 41.8324 451.42 42.5857 449.12 44.0923C446.819 45.599 445.119 47.2074 444.019 48.9176L437.667 46.4744C439.337 43.6241 441.332 41.4048 443.653 39.8168C445.974 38.2083 448.407 37.0885 450.952 36.4574C453.497 35.8059 455.95 35.4801 458.312 35.4801C459.819 35.4801 461.519 35.6634 463.412 36.0298C465.306 36.3759 467.077 37.0987 468.726 38.1981C470.396 39.2976 471.648 40.9569 472.482 43.1761C473.338 45.3954 473.46 48.3679 472.849 52.0938L467.718 83H460.511L461.61 76.6477H461.244C460.592 77.6657 459.595 78.755 458.251 79.9155C456.928 81.076 455.248 82.0634 453.212 82.8778C451.196 83.6922 448.824 84.0994 446.096 84.0994ZM448.173 77.625C451.023 77.625 453.517 77.0651 455.655 75.9453C457.813 74.8255 459.544 73.38 460.847 71.6087C462.17 69.8374 462.995 67.9744 463.321 66.0199L464.42 59.4233C464.054 59.7898 463.331 60.1257 462.252 60.4311C461.173 60.7161 459.951 60.9706 458.587 61.1946C457.243 61.3982 455.93 61.5814 454.647 61.7443C453.385 61.8868 452.367 62.009 451.593 62.1108C449.679 62.3551 447.857 62.7521 446.127 63.3018C444.416 63.8312 442.971 64.6354 441.79 65.7145C440.63 66.7732 439.907 68.2187 439.622 70.0511C439.194 72.5554 439.795 74.4489 441.424 75.7315C443.052 76.9938 445.302 77.625 448.173 77.625ZM482.593 83L490.411 36.0909H497.619L489.801 83H482.593ZM496.214 28.1506C494.809 28.1506 493.598 27.6721 492.58 26.7152C491.582 25.7583 491.083 24.608 491.083 23.2642C491.083 21.9205 491.582 20.7701 492.58 19.8132C493.598 18.8563 494.809 18.3778 496.214 18.3778C497.619 18.3778 498.82 18.8563 499.818 19.8132C500.836 20.7701 501.345 21.9205 501.345 23.2642C501.345 24.608 500.836 25.7583 499.818 26.7152C498.82 27.6721 497.619 28.1506 496.214 28.1506Z" fill="white"/>
<defs>
<linearGradient id="paint0_linear_66_107" x1="48.3109" y1="18" x2="48.3109" y2="46.1081" gradientUnits="userSpaceOnUse">
<stop stop-color="#F43753"/>
<stop offset="1" stop-color="#FF6B35"/>
</linearGradient>
<linearGradient id="paint1_linear_66_107" x1="13.6149" y1="54.8919" x2="13.6149" y2="83" gradientUnits="userSpaceOnUse">
<stop stop-color="#F43753"/>
<stop offset="1" stop-color="#FF6B35"/>
</linearGradient>
<linearGradient id="paint2_linear_66_107" x1="10.1159" y1="29.3264" x2="51.6603" y2="70.1977" gradientUnits="userSpaceOnUse">
<stop stop-color="#F43753"/>
<stop offset="1" stop-color="#FF6B35"/>
</linearGradient>
</defs>
</svg>
